<mxfile host="65bd71144e">
    <diagram id="fmk87KMWsRpPHeyAXRBI" name="Page-1">
        <mxGraphModel dx="751" dy="688" grid="1" gridSize="10" guides="1" tooltips="1" connect="1" arrows="1" fold="1" page="1" pageScale="1" pageWidth="850" pageHeight="1100" math="0" shadow="0">
            <root>
                <mxCell id="0"/>
                <mxCell id="1" parent="0"/>
                <mxCell id="ulzdCFbi7KyNJwYKFdQd-4" value="VPC" style="outlineConnect=0;gradientColor=none;html=1;whiteSpace=wrap;fontSize=12;fontStyle=0;shape=mxgraph.aws4.group;grIcon=mxgraph.aws4.group_vpc;strokeColor=#879196;fillColor=none;verticalAlign=top;align=left;spacingLeft=30;fontColor=#879196;dashed=0;" parent="1" vertex="1">
                    <mxGeometry x="85" y="20" width="585" height="290" as="geometry"/>
                </mxCell>
                <mxCell id="ulzdCFbi7KyNJwYKFdQd-1" value="Security Hub" style="outlineConnect=0;fontColor=#808080;gradientColor=#F54749;gradientDirection=north;fillColor=#C7131F;strokeColor=#ffffff;dashed=0;verticalLabelPosition=top;verticalAlign=bottom;align=center;html=1;fontSize=12;fontStyle=0;aspect=fixed;shape=mxgraph.aws4.resourceIcon;resIcon=mxgraph.aws4.security_hub;labelPosition=center;" parent="1" vertex="1">
                    <mxGeometry x="404.5" y="40" width="78" height="78" as="geometry"/>
                </mxCell>
                <mxCell id="ulzdCFbi7KyNJwYKFdQd-16" style="edgeStyle=orthogonalEdgeStyle;rounded=0;orthogonalLoop=1;jettySize=auto;html=1;strokeColor=#808080;" parent="1" source="ulzdCFbi7KyNJwYKFdQd-2" target="ulzdCFbi7KyNJwYKFdQd-3" edge="1">
                    <mxGeometry relative="1" as="geometry">
                        <Array as="points">
                            <mxPoint x="530" y="200"/>
                            <mxPoint x="530" y="200"/>
                        </Array>
                    </mxGeometry>
                </mxCell>
                <mxCell id="ulzdCFbi7KyNJwYKFdQd-2" value="&lt;font&gt;S3&lt;/font&gt;" style="outlineConnect=0;fontColor=#808080;gradientColor=#60A337;gradientDirection=north;fillColor=#277116;strokeColor=#ffffff;dashed=0;verticalLabelPosition=bottom;verticalAlign=top;align=center;html=1;fontSize=12;fontStyle=0;aspect=fixed;shape=mxgraph.aws4.resourceIcon;resIcon=mxgraph.aws4.s3;" parent="1" vertex="1">
                    <mxGeometry x="560" y="181" width="78" height="78" as="geometry"/>
                </mxCell>
                <mxCell id="ulzdCFbi7KyNJwYKFdQd-14" style="edgeStyle=orthogonalEdgeStyle;rounded=0;orthogonalLoop=1;jettySize=auto;html=1;strokeColor=#808080;" parent="1" source="ulzdCFbi7KyNJwYKFdQd-3" target="ulzdCFbi7KyNJwYKFdQd-1" edge="1">
                    <mxGeometry relative="1" as="geometry"/>
                </mxCell>
                <mxCell id="ulzdCFbi7KyNJwYKFdQd-15" style="edgeStyle=orthogonalEdgeStyle;rounded=0;orthogonalLoop=1;jettySize=auto;html=1;strokeColor=#808080;" parent="1" source="ulzdCFbi7KyNJwYKFdQd-3" target="ulzdCFbi7KyNJwYKFdQd-2" edge="1">
                    <mxGeometry relative="1" as="geometry">
                        <Array as="points">
                            <mxPoint x="520" y="230"/>
                            <mxPoint x="520" y="230"/>
                        </Array>
                    </mxGeometry>
                </mxCell>
                <mxCell id="ulzdCFbi7KyNJwYKFdQd-3" value="&lt;font&gt;Lambda&lt;/font&gt;" style="outlineConnect=0;dashed=0;verticalLabelPosition=bottom;verticalAlign=top;align=center;html=1;shape=mxgraph.aws3.lambda;fillColor=#F58534;gradientColor=none;fontColor=#808080;" parent="1" vertex="1">
                    <mxGeometry x="406" y="173.5" width="76.5" height="93" as="geometry"/>
                </mxCell>
                <mxCell id="ulzdCFbi7KyNJwYKFdQd-9" style="edgeStyle=orthogonalEdgeStyle;rounded=0;orthogonalLoop=1;jettySize=auto;html=1;strokeColor=#808080;" parent="1" source="ulzdCFbi7KyNJwYKFdQd-6" target="ulzdCFbi7KyNJwYKFdQd-8" edge="1">
                    <mxGeometry relative="1" as="geometry"/>
                </mxCell>
                <mxCell id="ulzdCFbi7KyNJwYKFdQd-6" value="Event Bridge" style="outlineConnect=0;fontColor=#808080;gradientColor=#F34482;gradientDirection=north;fillColor=#BC1356;strokeColor=#ffffff;dashed=0;verticalLabelPosition=bottom;verticalAlign=top;align=center;html=1;fontSize=12;fontStyle=0;aspect=fixed;shape=mxgraph.aws4.resourceIcon;resIcon=mxgraph.aws4.eventbridge;" parent="1" vertex="1">
                    <mxGeometry x="108.5" y="181" width="78" height="78" as="geometry"/>
                </mxCell>
                <mxCell id="ulzdCFbi7KyNJwYKFdQd-10" style="edgeStyle=orthogonalEdgeStyle;rounded=0;orthogonalLoop=1;jettySize=auto;html=1;strokeColor=#808080;" parent="1" source="ulzdCFbi7KyNJwYKFdQd-8" target="ulzdCFbi7KyNJwYKFdQd-3" edge="1">
                    <mxGeometry relative="1" as="geometry">
                        <Array as="points">
                            <mxPoint x="370" y="220"/>
                            <mxPoint x="370" y="220"/>
                        </Array>
                    </mxGeometry>
                </mxCell>
                <mxCell id="3" style="edgeStyle=none;html=1;strokeColor=#808080;" edge="1" parent="1" source="ulzdCFbi7KyNJwYKFdQd-8" target="2">
                    <mxGeometry relative="1" as="geometry"/>
                </mxCell>
                <mxCell id="ulzdCFbi7KyNJwYKFdQd-8" value="Step Functions" style="outlineConnect=0;fontColor=#808080;gradientColor=#F34482;gradientDirection=north;fillColor=#BC1356;strokeColor=#ffffff;dashed=0;verticalLabelPosition=bottom;verticalAlign=top;align=center;html=1;fontSize=12;fontStyle=0;aspect=fixed;shape=mxgraph.aws4.resourceIcon;resIcon=mxgraph.aws4.step_functions;" parent="1" vertex="1">
                    <mxGeometry x="253.75" y="181" width="78" height="78" as="geometry"/>
                </mxCell>
                <mxCell id="2" value="&lt;font color=&quot;#808080&quot;&gt;SNS&lt;/font&gt;" style="sketch=0;points=[[0,0,0],[0.25,0,0],[0.5,0,0],[0.75,0,0],[1,0,0],[0,1,0],[0.25,1,0],[0.5,1,0],[0.75,1,0],[1,1,0],[0,0.25,0],[0,0.5,0],[0,0.75,0],[1,0.25,0],[1,0.5,0],[1,0.75,0]];outlineConnect=0;fontColor=#232F3E;gradientColor=#FF4F8B;gradientDirection=north;fillColor=#BC1356;strokeColor=#ffffff;dashed=0;verticalLabelPosition=top;verticalAlign=bottom;align=center;html=1;fontSize=12;fontStyle=0;aspect=fixed;shape=mxgraph.aws4.resourceIcon;resIcon=mxgraph.aws4.sns;labelPosition=center;" vertex="1" parent="1">
                    <mxGeometry x="253.75" y="40" width="78" height="78" as="geometry"/>
                </mxCell>
            </root>
        </mxGraphModel>
    </diagram>
</mxfile>